<svg width="13" height="13" viewBox="0 0 13 13" fill="none" xmlns="http://www.w3.org/2000/svg">
<g clip-path="url(#clip0_1808_12612)">
<path d="M13.0002 6.48923C13.0164 10.0427 10.1124 12.9695 6.57433 13C2.9994 13.0296 0.029866 10.18 0.000224569 6.56913C-0.0294168 2.93398 2.87903 0.00449416 6.49439 5.21104e-06C10.0801 -0.00448374 12.9841 2.89179 13.0002 6.48923ZM4.71231 7.73177C4.6656 7.67701 4.63506 7.63571 4.60003 7.6007C4.06828 7.06831 3.53474 6.53592 3.00209 6.00353C2.85837 5.85988 2.75957 5.85988 2.61765 6.00173C2.36435 6.25581 2.11105 6.51078 1.85775 6.76485C1.68978 6.93454 1.69158 7.02431 1.85865 7.1904C2.35357 7.68329 2.8476 8.17797 3.34252 8.67176C3.74672 9.07576 4.15092 9.47977 4.55692 9.88108C4.67009 9.99331 4.77878 9.99061 4.89195 9.88198C4.94764 9.82811 5.00244 9.77425 5.05723 9.71948C5.85575 8.91865 6.65427 8.11692 7.45369 7.31789C8.60072 6.17141 9.74865 5.02673 10.8957 3.88025C11.0439 3.73212 11.0421 3.63336 10.8957 3.48612C10.6388 3.22936 10.3828 2.97259 10.125 2.71672C9.97051 2.5623 9.8762 2.5605 9.7226 2.71313C8.32676 4.10739 6.93092 5.50256 5.53598 6.89773C5.26651 7.16796 4.99884 7.43999 4.71141 7.72998L4.71231 7.73177Z" fill="#009245"/>
</g>
<defs>
<clipPath id="clip0_1808_12612">
<rect width="13" height="13" fill="white"/>
</clipPath>
</defs>
</svg>
