<svg width="113" height="20" viewBox="0 0 113 20" fill="none" xmlns="http://www.w3.org/2000/svg">
<path d="M12.104 15.9547V19.6718H0V5.05615H11.8385V8.77327H4.82662V10.4883H10.9807V14.0346H4.82662V15.9547H12.104V15.9547Z" fill="#461286"/>
<path d="M23.1113 19.6718L20.5925 15.7702L18.1349 19.6718H12.5391L17.8082 12.2991L12.7297 5.05615H18.2439L20.7218 8.73227L23.1317 5.05615H28.4145L23.3564 12.1146L28.7208 19.6718H23.1113Z" fill="#461286"/>
<path d="M39.8586 5.71895C40.8593 6.16309 41.6286 6.80538 42.1664 7.639C42.7042 8.47262 42.9765 9.44973 42.9765 10.5635C42.9765 11.6773 42.7042 12.6544 42.1664 13.488C41.6286 14.3216 40.8525 14.9639 39.8586 15.408C38.8579 15.8522 37.687 16.0777 36.3459 16.0777H34.2423V19.6718H29.334V5.05615H36.3459C37.687 5.05615 38.8579 5.27481 39.8586 5.71895ZM37.5304 11.8276C37.864 11.5269 38.0273 11.1101 38.0273 10.5635C38.0273 10.0169 37.864 9.60005 37.5304 9.2994C37.1968 8.99876 36.6998 8.84843 36.0327 8.84843H34.2423V12.2717H36.0327C36.693 12.2786 37.1968 12.1282 37.5304 11.8276Z" fill="#461286"/>
<path d="M53.7744 17.1231H48.2398L47.2595 19.6718H42.2695L48.6347 5.05615H53.4613L59.8264 19.6718H54.7479L53.7744 17.1231ZM52.4265 13.57L51.0105 9.89387L49.5946 13.57H52.4265Z" fill="#461286"/>
<path d="M66.8578 15.9957H65.5235V19.6718H60.6152V5.05615H67.6271C68.975 5.05615 70.1459 5.28164 71.1398 5.72578C72.1406 6.16992 72.9098 6.81222 73.4476 7.64583C73.9854 8.47945 74.2577 9.45656 74.2577 10.5703C74.2577 11.6158 74.0195 12.5245 73.5497 13.3035C73.08 14.0825 72.3993 14.7043 71.5143 15.1621L74.5709 19.6718H69.329L66.8578 15.9957ZM68.8116 9.2994C68.4781 8.99876 67.9811 8.84843 67.3139 8.84843H65.5235V12.2717H67.3139C67.9811 12.2717 68.4781 12.1214 68.8116 11.8208C69.1452 11.5201 69.3086 11.1033 69.3086 10.5567C69.3086 10.01 69.1452 9.60005 68.8116 9.2994Z" fill="#461286"/>
<path d="M85.7486 11.9646H90.0102V18.1416C89.1524 18.7429 88.1517 19.2007 87.0148 19.5218C85.8779 19.843 84.7615 20.0001 83.6654 20.0001C82.1133 20.0001 80.7177 19.679 79.4855 19.0298C78.2534 18.3807 77.2867 17.4788 76.5855 16.3172C75.8843 15.1556 75.5371 13.8368 75.5371 12.3609C75.5371 10.885 75.8843 9.56623 76.5855 8.40463C77.2867 7.24303 78.2602 6.33425 79.5196 5.69196C80.7722 5.04283 82.195 4.72168 83.7744 4.72168C85.204 4.72168 86.4838 4.96083 87.6139 5.43914C88.7439 5.91744 89.6834 6.62124 90.4322 7.53685L87.2939 10.311C86.3817 9.23825 85.2925 8.70528 84.0262 8.70528C82.9438 8.70528 82.0861 9.03326 81.4461 9.68922C80.8062 10.3452 80.4863 11.2335 80.4863 12.3609C80.4863 13.461 80.7994 14.3425 81.4325 15.0121C82.0656 15.6817 82.903 16.0165 83.9582 16.0165C84.5845 16.0165 85.1767 15.9004 85.7486 15.6612V11.9646V11.9646Z" fill="#E6A93B"/>
<path d="M107.854 10.9943C104.634 10.9397 102.04 8.2953 102.04 5.04966V4.98133C101.319 4.81051 100.556 4.72168 99.7461 4.72168C98.1804 4.72168 96.7712 5.04966 95.5254 5.69879C94.2796 6.35475 93.2993 7.26353 92.5913 8.42513C91.8833 9.58673 91.5293 10.8987 91.5293 12.3609C91.5293 13.8231 91.8833 15.1351 92.5913 16.2967C93.2993 17.4583 94.2796 18.3671 95.5254 19.023C96.7712 19.679 98.1804 20.0001 99.7461 20.0001C101.312 20.0001 102.721 19.6721 103.967 19.023C105.213 18.3671 106.193 17.4583 106.901 16.2967C107.609 15.1351 107.963 13.8231 107.963 12.3609C107.963 11.8894 107.929 11.4385 107.854 10.9943ZM102.578 14.2946C102.285 14.8481 101.897 15.2717 101.4 15.5655C100.91 15.8662 100.359 16.0165 99.7461 16.0165C99.1334 16.0165 98.582 15.8662 98.0919 15.5655C97.6017 15.2649 97.2069 14.8413 96.9141 14.2946C96.6214 13.748 96.4785 13.0989 96.4785 12.3609C96.4785 11.6229 96.6214 10.9806 96.9141 10.4272C97.2069 9.87371 97.5949 9.45007 98.0919 9.15625C98.582 8.85561 99.1334 8.70528 99.7461 8.70528C100.359 8.70528 100.91 8.85561 101.4 9.15625C101.891 9.4569 102.285 9.88055 102.578 10.4272C102.871 10.9806 103.014 11.6229 103.014 12.3609C103.014 13.0989 102.871 13.7412 102.578 14.2946Z" fill="#E6A93B"/>
<path d="M112.875 6.22336C113.514 3.50565 111.838 0.782273 109.13 0.140543C106.422 -0.501186 103.709 1.18174 103.07 3.89946C102.43 6.61717 104.107 9.34054 106.815 9.98227C109.522 10.624 112.236 8.94108 112.875 6.22336Z" fill="#461286"/>
<path d="M111.462 5.05607L107.963 1.54395V3.30001H104.471V6.8053H107.963V8.56137L111.462 5.05607Z" fill="white"/>
</svg>
